<?xml version="1.0" encoding="UTF-8" standalone="no"?>
<!-- Created with Inkscape (http://www.inkscape.org/) -->

<svg
   xmlns:dc="http://purl.org/dc/elements/1.1/"
   xmlns:cc="http://creativecommons.org/ns#"
   xmlns:rdf="http://www.w3.org/1999/02/22-rdf-syntax-ns#"
   xmlns:svg="http://www.w3.org/2000/svg"
   xmlns="http://www.w3.org/2000/svg"
   xmlns:sodipodi="http://sodipodi.sourceforge.net/DTD/sodipodi-0.dtd"
   xmlns:inkscape="http://www.inkscape.org/namespaces/inkscape"
   width="115"
   height="115"
   viewBox="0 0 30.427082 30.42708"
   version="1.1"
   id="svg8885"
   inkscape:version="0.92.4 (5da689c313, 2019-01-14)"
   sodipodi:docname="widjet-user-ava.svg">
  <defs
     id="defs8879" />
  <sodipodi:namedview
     id="base"
     pagecolor="#ffffff"
     bordercolor="#666666"
     borderopacity="1.0"
     inkscape:pageopacity="0.0"
     inkscape:pageshadow="2"
     inkscape:zoom="2.8284271"
     inkscape:cx="-7.4305641"
     inkscape:cy="52.387089"
     inkscape:document-units="mm"
     inkscape:current-layer="layer1"
     showgrid="false"
     units="px"
     inkscape:window-width="1680"
     inkscape:window-height="941"
     inkscape:window-x="0"
     inkscape:window-y="31"
     inkscape:window-maximized="1" />
  <metadata
     id="metadata8882">
    <rdf:RDF>
      <cc:Work
         rdf:about="">
        <dc:format>image/svg+xml</dc:format>
        <dc:type
           rdf:resource="http://purl.org/dc/dcmitype/StillImage" />
        <dc:title />
      </cc:Work>
    </rdf:RDF>
  </metadata>
  <g
     inkscape:label="Layer 1"
     inkscape:groupmode="layer"
     id="layer1"
     transform="translate(0,-266.57292)">
    <path
       style="fill:none;stroke:#e2f7fc;stroke-width:0.24368125;stroke-linecap:butt;stroke-linejoin:miter;stroke-miterlimit:4;stroke-dasharray:none;stroke-opacity:0.96078431"
       d="m 18.830669,284.12414 c 0,0 1.456061,-1.45605 1.734038,-2.40912 0.277975,-0.95306 0.370634,-1.48253 0.370634,-1.48253 0,0 0.38387,0.0397 0.476528,0.0264 0.09266,-0.0129 0.450057,-0.0795 0.55595,-0.55596 0.105905,-0.47652 0.357398,-2.56795 0.330924,-2.66061 -0.02647,-0.0927 -0.17208,-0.27797 -0.463292,-0.37063 -0.291213,-0.0927 -0.317685,-0.13241 -0.317685,-0.13241 0,0 0.34416,-1.91936 0.105905,-2.8989 -0.238266,-0.97951 -0.595662,-2.2635 -1.972303,-3.36218 -1.376638,-1.09865 -2.342935,-1.83991 -3.454836,-1.66783 -1.111901,0.17207 -1.773747,0.47652 -1.919354,0.6089 -0.145605,0.1324 -1.755433,-0.2473 -2.897342,0.7823 -1.141911,1.02957 -1.8282411,1.74595 -2.0797433,3.0167 -0.251501,1.27073 -0.3163977,1.85045 -0.2227995,2.71156 0.093605,0.86112 0.093605,0.86112 0.093605,0.86112 0,0 -0.4024767,0.028 -0.5335154,0.24336 -0.1310362,0.21527 -0.1778385,0.4399 -0.1404018,0.6271 0.037449,0.1872 0.4118359,2.38678 0.4118359,2.38678 0,0 0.1404017,0.30888 0.3275968,0.39313 0.1871989,0.0842 0.6083952,0.028 0.6083952,0.028 0,0 0.3088771,1.52566 1.0763901,2.58334 0.767514,1.05766 1.067031,1.34782 1.067031,1.34782 0,0 0.07487,1.71286 -0.411837,2.22765 -0.486716,0.51481 -0.486716,0.59905 -0.98279,0.81433 -0.496077,0.21527 -4.2774833,1.87197 -5.0262765,2.19021 -0.7487931,0.31823 -1.8719841,0.99215 -2.5271778,1.75967 -0.655195,0.7675 -0.8985528,1.40399 -1.0108719,1.77838 -0.1123229,0.3744 -0.1871977,0.99215 -0.1871977,0.99215 v 5.26442 H 28.824546 v -5.40068 c 0,0 0.161284,-1.51108 -0.737268,-2.37219 -0.898552,-0.86112 -2.471017,-1.94686 -4.567639,-2.78925 -2.096621,-0.8424 -4.118364,-1.53504 -4.417882,-2.43359 -0.299517,-0.89855 -0.262076,-1.79711 -0.262076,-1.79711 z"
       id="path10834"
       inkscape:connector-curvature="0" />
    <path
       style="fill:none;fill-opacity:1;stroke:#e2f7fc;stroke-width:0.23230417;stroke-linecap:butt;stroke-linejoin:miter;stroke-miterlimit:4;stroke-dasharray:none;stroke-opacity:0.96078431"
       d="m -30.991775,290.49121 c 0,0 -2.171999,0.15445 -3.243518,0.0193 -1.071519,-0.13513 -3.161404,-0.6597 -3.72113,-2.33887 -0.559728,-1.67919 -0.477815,-2.23891 -0.354949,-2.66211 0.122867,-0.42322 1.283276,-2.85325 1.283276,-2.85325 h 0.3686 c 0,0 0.846417,-1.11945 1.119453,-3.22184 0.273037,-2.10239 0.273037,-2.10239 0.273037,-2.10239 l -0.327643,-0.10922 c 0,0 0.177473,-3.52218 0.109213,-5.24231 -0.06826,-1.72014 -0.14959,-1.89645 -0.14959,-1.89645 0,0 -1.525225,-1.27424 -3.552424,-2.12373 -2.027199,-0.8495 -3.784105,-1.08118 -3.784105,-1.08118 l -1.023252,-0.75296 0.154452,0.73365 c 0,0 -2.683625,0.11584 -4.845971,1.66038 -2.162345,1.54453 -2.664319,2.10443 -2.664319,2.10443 0,0 -0.212374,2.76085 0,4.78804 0.212373,2.02721 0.212373,2.02721 0.212373,2.02721 v 0 l -0.40544,0.3089 c 0,0 0.40544,2.3168 0.98464,3.70687 0.579201,1.39008 0.579201,1.39008 0.579201,1.39008 l 0.386132,0.0193 c 0,0 0.193067,0.96533 0.540586,1.48661 0.34752,0.5213 0.34752,0.5213 0.34752,0.5213 0,0 0.482667,2.81877 -0.444052,3.70686 -0.926721,0.88811 -1.776214,1.67967 -3.243519,1.83414 -1.467307,0.15444 -8.630075,0.79156 -8.630075,0.79156 v 6.17813 h 36.412354 v -6.75732 z"
       id="path9258"
       inkscape:connector-curvature="0" />
  </g>
</svg>
